<svg xmlns="http://www.w3.org/2000/svg" width="29" height="29" viewBox="0 0 29 29">
  <g id="Group_877" data-name="Group 877" transform="translate(-0.091 -0.273)">
    <rect id="Rectangle_170" data-name="Rectangle 170" width="29" height="29" transform="translate(0.091 0.273)" fill="none"/>
    <path id="Union_39" data-name="Union 39" d="M3.011,18.4A3.023,3.023,0,0,1,0,15.367V3.031A3.023,3.023,0,0,1,3.011,0H10a.779.779,0,0,1,.787.787A.779.779,0,0,1,10,1.575H3.011A1.448,1.448,0,0,0,1.574,3.031V15.367a1.448,1.448,0,0,0,1.436,1.456H10A.787.787,0,1,1,10,18.4ZM14.4,12.758a.739.739,0,0,1-.238-.531.8.8,0,0,1,.235-.577l1.664-1.664H5.533a.788.788,0,0,1,0-1.575H16.058L14.4,6.75a.737.737,0,0,1-.238-.531.8.8,0,0,1,.231-.573.736.736,0,0,1,.548-.238.788.788,0,0,1,.56.234l2.42,2.44A1.487,1.487,0,0,1,18.4,9.2a1.619,1.619,0,0,1-.475,1.133L15.5,12.755a.767.767,0,0,1-1.1,0Z" transform="translate(5.285 5.83)" fill="#fff"/>
  </g>
</svg>
