<svg xmlns="http://www.w3.org/2000/svg" width="15" height="15" viewBox="0 0 15 15">
  <g id="Group_106167" data-name="Group 106167" transform="translate(-2891 -247)">
    <path id="Path_16680" data-name="Path 16680" d="M7.5,15A7.5,7.5,0,1,1,15,7.5,7.509,7.509,0,0,1,7.5,15m0-13.663A6.163,6.163,0,1,0,13.662,7.5,6.17,6.17,0,0,0,7.5,1.337" transform="translate(2891 247)" fill="lime"/>
    <path id="Path_16681" data-name="Path 16681" d="M11.823,7.33l-2.477-2.5h0a.672.672,0,0,0-.217-.146l0,0A.651.651,0,0,0,9,4.661a.677.677,0,0,0-.132-.025.686.686,0,0,0-.128.024.686.686,0,0,0-.124.024l-.006,0a.663.663,0,0,0-.163.108.615.615,0,0,0-.052.034h0l0,0L5.889,7.327a.669.669,0,0,0,.948.944L8.2,6.914v5.419a.67.67,0,0,0,1.341,0V6.928l1.329,1.34a.669.669,0,1,0,.953-.938" transform="translate(2889.569 245.85)" fill="lime"/>
  </g>
</svg>
