<svg xmlns="http://www.w3.org/2000/svg" width="35.726" height="35.726" viewBox="0 0 35.726 35.726">
  <g id="Group_107100" data-name="Group 107100" transform="translate(0)">
    <rect id="Rectangle_19623" data-name="Rectangle 19623" width="35.726" height="35.726" transform="translate(0)" fill="none"/>
    <g id="Group_106175" data-name="Group 106175" transform="translate(7.742 2.623)">
      <path id="Path_16161" data-name="Path 16161" d="M57.852,14.145a5.3,5.3,0,1,0-3.745-1.551,5.291,5.291,0,0,0,3.745,1.551" transform="translate(-48.252 -3.552)" fill="#ff6e90"/>
      <path id="Path_16162" data-name="Path 16162" d="M69.888,23.9,66.995,12.561a4.565,4.565,0,0,0-4.431-3.476H58.131A4.565,4.565,0,0,0,53.7,12.561L50.809,23.9a2.257,2.257,0,0,0,.257,1.689A2.221,2.221,0,0,0,52.439,26.6l.764.183-.007.067H67.5l-.007-.067.764-.183A2.239,2.239,0,0,0,69.888,23.9" transform="translate(-50.747 2.379)" fill="#ff6e90"/>
    </g>
  </g>
</svg>
