<svg id="Group_107101" data-name="Group 107101" xmlns="http://www.w3.org/2000/svg" width="35.726" height="35.726" viewBox="0 0 35.726 35.726">
  <rect id="Rectangle_19622" data-name="Rectangle 19622" width="35.726" height="35.726" transform="translate(0)" fill="none"/>
  <g id="Group_106174" data-name="Group 106174" transform="translate(7.804 2.664)">
    <path id="Path_16163" data-name="Path 16163" d="M36.274,14.45a5.449,5.449,0,1,0-3.853-1.593,5.457,5.457,0,0,0,3.853,1.593" transform="translate(-27.024 -3.553)" fill="#03c5fa"/>
    <path id="Path_16165" data-name="Path 16165" d="M46.471,10.377a4.412,4.412,0,0,0-3.113-1.292h-9.68a4.412,4.412,0,0,0-4.406,4.406V24.955a2.492,2.492,0,0,0,1.084,2.071,2.545,2.545,0,0,0,.732.338h1.349c.083-.024.164-.049.245-.081l0,.081H44.348l0-.081c.081.032.164.056.247.081h1.349a2.531,2.531,0,0,0,.729-.338,2.488,2.488,0,0,0,1.087-2.071V13.491a4.408,4.408,0,0,0-1.292-3.113" transform="translate(-29.271 1.753)" fill="#03c5fa"/>
  </g>
</svg>
